<?xml version="1.0" standalone="no"?>
<!DOCTYPE svg PUBLIC "-//W3C//DTD SVG 20010904//EN"
 "http://www.w3.org/TR/2001/REC-SVG-20010904/DTD/svg10.dtd">
<svg version="1.0" xmlns="http://www.w3.org/2000/svg"
 width="512.000000pt" height="512.000000pt" viewBox="0 0 512.000000 512.000000"
 preserveAspectRatio="xMidYMid meet">
<metadata>
Created by potrace 1.11, written by Peter Selinger 2001-2013
</metadata>
<g transform="translate(0.000000,512.000000) scale(0.100000,-0.100000)"
fill="#000000" stroke="none">
<path d="M1384 4945 c-96 -21 -218 -83 -293 -150 -50 -45 -113 -132 -148 -205
-66 -137 -62 -8 -62 -2035 -1 -2055 -7 -1883 72 -2045 71 -146 198 -256 374
-323 l58 -22 1140 -3 c1280 -3 1214 -6 1368 71 113 56 218 161 274 274 79 157
74 4 71 2088 l-3 1860 -22 58 c-41 107 -87 181 -158 253 -88 88 -167 134 -320
182 -11 4 -531 7 -1155 9 -916 1 -1147 -1 -1196 -12z"/>
</g>
</svg>
