<?xml version="1.0" standalone="no"?>
<!DOCTYPE svg PUBLIC "-//W3C//DTD SVG 20010904//EN"
 "http://www.w3.org/TR/2001/REC-SVG-20010904/DTD/svg10.dtd">
<svg version="1.0" xmlns="http://www.w3.org/2000/svg"
 width="700.000000pt" height="700.000000pt" viewBox="0 0 700.000000 700.000000"
 preserveAspectRatio="xMidYMid meet">
<metadata>
Created by potrace 1.11, written by Peter Selinger 2001-2013
</metadata>
<g transform="translate(0.000000,700.000000) scale(0.100000,-0.100000)"
fill="#000000" stroke="none">
<path d="M2175 6099 c-22 -4 -58 -10 -80 -13 -206 -31 -451 -100 -681 -191
-114 -45 -124 -47 -236 -51 -183 -5 -225 -14 -304 -72 -42 -30 -114 -129 -114
-155 0 -9 -4 -17 -8 -19 -10 -4 -49 -137 -58 -193 -8 -58 -34 -137 -112 -345
-132 -352 -231 -690 -266 -910 -9 -53 -16 -93 -21 -115 -2 -11 -7 -47 -10 -80
-3 -33 -8 -71 -10 -85 -11 -61 -19 -219 -20 -395 l-1 -190 -33 -68 c-41 -83
-35 -96 24 -52 21 14 21 12 47 -134 56 -309 152 -520 305 -668 318 -308 761
-115 942 409 36 102 57 199 48 222 -12 32 -127 57 -166 37 -13 -8 -27 -35 -41
-81 -48 -161 -147 -311 -245 -372 -162 -101 -324 -4 -398 237 -35 113 -46 221
-41 390 7 236 15 281 82 473 55 156 59 161 118 152 151 -23 250 63 255 222 2
45 4 49 23 43 37 -12 160 -14 211 -3 27 6 67 22 88 35 21 13 40 23 41 21 1 -2
10 -28 21 -58 29 -86 105 -230 142 -271 19 -21 55 -48 80 -60 42 -20 49 -30
88 -113 62 -133 88 -275 72 -386 -49 -326 -123 -543 -326 -955 -219 -446 -253
-556 -257 -846 -1 -102 -7 -204 -13 -226 -12 -44 -45 -77 -126 -127 -49 -30
-92 -87 -101 -135 -6 -31 21 -94 52 -123 43 -38 73 -42 346 -44 l267 -1 7 31
c12 51 6 106 -17 150 -12 22 -28 52 -35 66 -19 34 -17 63 7 167 83 360 248
634 519 864 30 26 120 95 200 154 168 126 173 131 210 208 16 32 30 54 33 50
18 -32 94 -419 111 -571 24 -206 66 -372 131 -517 35 -80 40 -120 16 -158 -11
-18 -33 -43 -47 -57 -43 -39 -65 -101 -63 -170 1 -32 5 -63 8 -68 4 -6 141 -9
328 -8 l323 1 7 30 c3 17 7 37 7 45 0 29 -15 104 -23 115 -4 5 -25 40 -45 77
-41 76 -61 132 -71 198 -4 25 -9 54 -11 65 -15 87 -41 318 -49 430 -6 83 -7
411 -1 440 2 11 7 52 10 90 8 82 17 152 22 180 2 11 6 32 9 48 3 15 7 39 10
55 20 115 24 123 54 115 14 -3 120 -44 236 -90 304 -122 426 -155 675 -180 25
-2 168 -5 317 -6 l273 -2 24 -25 c68 -69 134 -248 154 -420 13 -106 4 -440
-12 -491 -2 -8 -7 -40 -10 -72 -3 -32 -8 -62 -10 -65 -2 -4 -7 -23 -10 -42 -9
-57 -14 -81 -37 -172 -18 -75 -30 -100 -88 -181 -37 -52 -73 -115 -80 -139
-15 -52 -20 -123 -11 -138 4 -7 126 -9 373 -7 l367 2 6 33 c4 20 -5 80 -22
160 -26 113 -29 146 -29 302 0 96 3 213 8 259 15 161 61 407 102 541 7 25 23
78 35 117 12 40 25 75 29 77 11 7 112 -75 152 -125 103 -127 209 -347 313
-650 55 -162 51 -197 -38 -353 -42 -73 -59 -130 -60 -196 l0 -25 300 -1 c166
-1 307 3 317 8 29 15 90 85 116 134 41 77 39 117 -8 210 -35 69 -42 92 -47
163 -7 112 -24 157 -141 370 -59 108 -147 341 -168 446 -16 76 -35 214 -40
284 -3 42 -7 94 -10 116 -2 22 -7 72 -10 110 -7 83 -14 135 -24 191 -4 22 -7
47 -5 55 1 8 14 82 29 164 15 83 28 159 30 170 1 11 6 47 10 80 4 33 9 68 11
77 25 140 20 519 -10 674 -3 17 -8 46 -11 65 -26 176 -114 438 -221 651 -273
549 -684 859 -1214 917 -107 11 -392 3 -450 -14 -8 -2 -33 -7 -55 -10 -38 -5
-148 -32 -366 -89 -137 -35 -191 -41 -384 -41 -151 0 -215 5 -305 20 -14 2
-43 7 -65 10 -64 9 -247 48 -555 118 l-105 24 -85 108 c-119 152 -115 149
-263 150 -67 0 -140 -2 -162 -6z m4033 -2085 c-3 -3 0 -29 7 -57 8 -29 17 -77
22 -107 7 -50 9 -343 3 -450 l-3 -45 -42 86 c-45 92 -45 88 -21 213 8 46 19
184 21 276 2 93 2 90 12 90 3 0 4 -3 1 -6z"/>
</g>
</svg>
