<svg
  xmlns="http://www.w3.org/2000/svg"
  view-box="0 0 27 27"
  aria-labelledby="emoji-card-box"
>
  <title id="emoji-card-box">Work</title>
  <g fill="none">
    <polygon
      fill="#785647"
      points="26.423 11.7 4.32 11.619 1.003 4.985 22.207 4.985"
    />
    <polygon
      fill="#9E6C49"
      points="5.698 13.005 4.977 13.005 0 4.5 .692 4.5"
    />
    <polygon fill="#F59E01" points="6.3 9 25.2 9 25.2 18 6.3 18" />
    <polygon fill="#D47706" points="5.4 10.35 24.3 10.35 24.3 18 5.4 18" />
    <polygon fill="#F9B700" points="4.5 10.8 23.4 10.8 23.4 18 4.5 18" />
    <polygon fill="#EA8800" points="3.6 12.15 22.5 12.15 22.5 18 3.6 18" />
    <polygon fill="#F9C802" points="2.7 12.6 21.6 12.6 21.6 18 2.7 18" />
    <path
      fill="#E81C27"
      d="M9,12.6 L2.7,12.6 L2.7,10.8 C2.7,10.305 3.105,9.9 3.6,9.9 L8.1,9.9 C8.595,9.9 9,10.305 9,10.8 L9,12.6 Z"
    />
    <path
      fill="#7AB51D"
      d="M17.1,10.8 L10.8,10.8 L10.8,9 C10.8,8.505 11.205,8.1 11.7,8.1 L16.2,8.1 C16.695,8.1 17.1,8.505 17.1,9 L17.1,10.8 Z"
    />
    <path
      fill="#006DAE"
      d="M25.2,9 L18.9,9 L18.9,7.2 C18.9,6.705 19.305,6.3 19.8,6.3 L24.3,6.3 C24.795,6.3 25.2,6.705 25.2,7.2 L25.2,9 Z"
    />
    <polygon fill="#EA8800" points="9 12.6 9.45 12.6 9 10.8" />
    <polygon fill="#D47706" points="17.1 10.8 17.55 10.8 17.1 9" />
    <polygon fill="#C4926E" points="0 15.3 22.5 15.3 22.5 27 0 27" />
    <polygon fill="#785647" points="27 21.6 22.5 27 22.5 15.3 27 11.7" />
    <polygon
      fill="#9E6C49"
      points="25.2 11.7 25.2 12.42 22.207 14.815 2.7 14.815 2.7 14.398 0 15.3 22.5 15.3 27 11.7"
    />
    <polygon fill="#C4926E" points="0 0 22.5 0 22.5 4.5 0 4.5" />
    <polygon fill="#785647" points="27 9.9 22.5 0 22.5 4.5 27 13.5" />
    <polygon
      fill="#9E6C49"
      points="26.55 13.5 22.207 4.985 1.003 4.985 0 4.5 22.5 4.5 27 13.5"
    />
    <path
      fill="#99A8AE"
      d="M15.75,22.725 C15.75,23.2220563 15.3470563,23.625 14.85,23.625 L7.65,23.625 C7.15294373,23.625 6.75,23.2220563 6.75,22.725 L6.75,20.025 C6.75,19.5279437 7.15294373,19.125 7.65,19.125 L14.85,19.125 C15.3470563,19.125 15.75,19.5279437 15.75,20.025 L15.75,22.725 Z"
    />
    <polygon
      fill="#FFF"
      points="7.65 20.025 14.85 20.025 14.85 22.725 7.65 22.725"
    />
    <polygon
      fill="#CFD8DD"
      points="7.65 20.025 14.85 20.025 14.85 20.925 7.65 20.925"
    />
  </g>
</svg>